<?xml version="1.0" encoding="UTF-8" standalone="no"?>
<!DOCTYPE svg PUBLIC "-//W3C//DTD SVG 1.1//EN" "http://www.w3.org/Graphics/SVG/1.1/DTD/svg11.dtd">
<svg width="906" height="906" viewBox="0 0 906 906" fill="none" xmlns="http://www.w3.org/2000/svg">
	<path fill-rule="evenodd" clip-rule="evenodd" d="M450.556 37.2538C445.775 38.5094 445.748 38.6888 445.749 67.8028C445.752 99.0317 445.467 98.1075 455.098 98.1075C475.083 98.1075 501.44 106.752 520.886 119.687C556.586 143.434 576.764 178.745 579.053 221.485C579.715 233.833 577.913 233.172 610.794 233.135C644.542 233.098 642.544 233.939 642.071 219.963C638.841 124.812 562.093 45.2345 466.31 37.7256C456.171 36.9314 452.235 36.8131 450.556 37.2538ZM476.211 52.6979C557.959 63.8294 622.065 132.135 628.308 214.759L628.662 219.455H610.572C593.682 219.455 592.481 219.397 592.481 218.566C592.457 183.239 569.569 139.434 538.662 115.569C515.63 97.7826 482.996 84.9055 460.954 84.9055H459.457V68.0095V51.1135L464.914 51.5086C467.917 51.7257 473 52.2599 476.211 52.6979ZM418.583 54.7451C314.177 68.9454 245.847 166.503 266.769 271.497C286.368 369.854 382.844 433.853 482.502 414.607C556.785 400.263 617.059 335.625 626.749 259.92C628.818 243.753 629.329 244.13 605.089 243.929C581.301 243.731 582.309 243.297 580.713 254.413C565.847 357.914 443.37 406.269 361.981 340.77C270.682 267.297 309.115 118.661 423.662 102.224C430.625 101.224 430.803 101.167 432.42 99.4086L434.07 97.6136V78.0335C434.07 51.8687 434.539 52.5745 418.583 54.7451ZM420.868 78.7978V88.8764L417.187 89.4769C306.901 107.483 259.249 245.067 333.326 331.609C398.08 407.261 515.92 400.003 571.044 316.966C581.706 300.904 594.005 269.241 594.005 257.852C594.005 257.678 598.346 257.535 603.652 257.535H613.299V258.715C613.299 270.783 603.571 299.735 593.42 317.878C542.385 409.09 421.547 432.769 340.412 367.459C227.355 276.448 271.881 94.407 413.29 69.5043C417.039 68.844 420.278 68.3968 420.487 68.5112C420.697 68.6256 420.868 73.2542 420.868 78.7978ZM445.152 130.644C443.673 131.215 442.846 132.277 424.361 157.335C382.682 213.831 377.563 221.874 373.46 237.313C356.625 300.653 424.259 354.736 482.836 324.775C518.557 306.502 534.386 264.531 519.395 227.833C514.568 216.018 509.535 208.632 469.057 153.957C450.205 128.494 450.352 128.637 445.152 130.644ZM465.645 172.236C501.509 221.036 503.152 223.47 507.415 234.124C523.531 274.405 492.453 319.4 448.469 319.468C403.498 319.537 372.672 275.526 388.644 234.054C392.119 225.03 395.184 220.302 416.046 191.784C443.351 154.456 447.939 148.33 448.299 148.729C448.502 148.952 456.306 159.529 465.645 172.236ZM398.687 251.417C392.282 255.323 396.669 275.016 406.955 288.539C417.863 302.877 441.801 311.756 445.954 303.004C448.611 297.404 446.179 294.502 437.433 292.844C423.136 290.131 410.579 275.277 409.205 259.454C408.514 251.501 404.092 248.122 398.687 251.417Z" fill="white"/>
	<path d="M66.48 535.2C66.48 526.411 68.4427 518.56 72.368 511.648C76.3787 504.651 81.7973 499.232 88.624 495.392C95.536 491.467 103.259 489.504 111.792 489.504C121.776 489.504 130.523 492.064 138.032 497.184C145.541 502.304 150.789 509.387 153.776 518.432H133.168C131.12 514.165 128.219 510.965 124.464 508.832C120.795 506.699 116.528 505.632 111.664 505.632C106.459 505.632 101.808 506.869 97.712 509.344C93.7013 511.733 90.544 515.147 88.24 519.584C86.0213 524.021 84.912 529.227 84.912 535.2C84.912 541.088 86.0213 546.293 88.24 550.816C90.544 555.253 93.7013 558.709 97.712 561.184C101.808 563.573 106.459 564.768 111.664 564.768C116.528 564.768 120.795 563.701 124.464 561.568C128.219 559.349 131.12 556.107 133.168 551.84H153.776C150.789 560.971 145.541 568.096 138.032 573.216C130.608 578.251 121.861 580.768 111.792 580.768C103.259 580.768 95.536 578.848 88.624 575.008C81.7973 571.083 76.3787 565.664 72.368 558.752C68.4427 551.84 66.48 543.989 66.48 535.2ZM187.002 485.28V580H169.082V485.28H187.002ZM270.627 543.008C270.627 545.568 270.456 547.872 270.115 549.92H218.275C218.702 555.04 220.494 559.051 223.651 561.952C226.808 564.853 230.691 566.304 235.299 566.304C241.955 566.304 246.691 563.445 249.507 557.728H268.835C266.787 564.555 262.862 570.187 257.059 574.624C251.256 578.976 244.131 581.152 235.683 581.152C228.856 581.152 222.712 579.659 217.251 576.672C211.875 573.6 207.651 569.291 204.579 563.744C201.592 558.197 200.099 551.797 200.099 544.544C200.099 537.205 201.592 530.763 204.579 525.216C207.566 519.669 211.747 515.403 217.123 512.416C222.499 509.429 228.686 507.936 235.683 507.936C242.424 507.936 248.44 509.387 253.731 512.288C259.107 515.189 263.246 519.328 266.147 524.704C269.134 529.995 270.627 536.096 270.627 543.008ZM252.067 537.888C251.982 533.28 250.318 529.611 247.075 526.88C243.832 524.064 239.864 522.656 235.171 522.656C230.734 522.656 226.979 524.021 223.907 526.752C220.92 529.397 219.086 533.109 218.403 537.888H252.067ZM279.099 544.288C279.099 537.12 280.507 530.763 283.323 525.216C286.224 519.669 290.107 515.403 294.971 512.416C299.92 509.429 305.424 507.936 311.483 507.936C316.774 507.936 321.382 509.003 325.307 511.136C329.318 513.269 332.518 515.957 334.907 519.2V509.088H352.955V580H334.907V569.632C332.603 572.96 329.403 575.733 325.307 577.952C321.296 580.085 316.646 581.152 311.355 581.152C305.382 581.152 299.92 579.616 294.971 576.544C290.107 573.472 286.224 569.163 283.323 563.616C280.507 557.984 279.099 551.541 279.099 544.288ZM334.907 544.544C334.907 540.192 334.054 536.48 332.347 533.408C330.64 530.251 328.336 527.861 325.435 526.24C322.534 524.533 319.419 523.68 316.091 523.68C312.763 523.68 309.691 524.491 306.875 526.112C304.059 527.733 301.755 530.123 299.963 533.28C298.256 536.352 297.403 540.021 297.403 544.288C297.403 548.555 298.256 552.309 299.963 555.552C301.755 558.709 304.059 561.141 306.875 562.848C309.776 564.555 312.848 565.408 316.091 565.408C319.419 565.408 322.534 564.597 325.435 562.976C328.336 561.269 330.64 558.88 332.347 555.808C334.054 552.651 334.907 548.896 334.907 544.544ZM409.753 508.064C418.201 508.064 425.028 510.752 430.233 516.128C435.438 521.419 438.041 528.843 438.041 538.4V580H420.121V540.832C420.121 535.2 418.713 530.891 415.897 527.904C413.081 524.832 409.241 523.296 404.377 523.296C399.428 523.296 395.502 524.832 392.601 527.904C389.785 530.891 388.377 535.2 388.377 540.832V580H370.457V509.088H388.377V517.92C390.766 514.848 393.796 512.459 397.465 510.752C401.22 508.96 405.316 508.064 409.753 508.064ZM546.382 490.656V505.12H522.574V580H504.654V505.12H480.846V490.656H546.382ZM577.377 520.096C579.681 516.341 582.668 513.397 586.337 511.264C590.092 509.131 594.358 508.064 599.137 508.064V526.88H594.401C588.769 526.88 584.502 528.203 581.601 530.848C578.785 533.493 577.377 538.101 577.377 544.672V580H559.457V509.088H577.377V520.096ZM606.599 544.288C606.599 537.12 608.007 530.763 610.823 525.216C613.724 519.669 617.607 515.403 622.471 512.416C627.42 509.429 632.924 507.936 638.983 507.936C644.274 507.936 648.882 509.003 652.807 511.136C656.818 513.269 660.018 515.957 662.407 519.2V509.088H680.455V580H662.407V569.632C660.103 572.96 656.903 575.733 652.807 577.952C648.796 580.085 644.146 581.152 638.855 581.152C632.882 581.152 627.42 579.616 622.471 576.544C617.607 573.472 613.724 569.163 610.823 563.616C608.007 557.984 606.599 551.541 606.599 544.288ZM662.407 544.544C662.407 540.192 661.554 536.48 659.847 533.408C658.14 530.251 655.836 527.861 652.935 526.24C650.034 524.533 646.919 523.68 643.591 523.68C640.263 523.68 637.191 524.491 634.375 526.112C631.559 527.733 629.255 530.123 627.463 533.28C625.756 536.352 624.903 540.021 624.903 544.288C624.903 548.555 625.756 552.309 627.463 555.552C629.255 558.709 631.559 561.141 634.375 562.848C637.276 564.555 640.348 565.408 643.591 565.408C646.919 565.408 650.034 564.597 652.935 562.976C655.836 561.269 658.14 558.88 659.847 555.808C661.554 552.651 662.407 548.896 662.407 544.544ZM693.349 544.544C693.349 537.205 694.842 530.805 697.829 525.344C700.816 519.797 704.954 515.531 710.245 512.544C715.536 509.472 721.594 507.936 728.421 507.936C737.21 507.936 744.464 510.155 750.181 514.592C755.984 518.944 759.866 525.088 761.829 533.024H742.501C741.477 529.952 739.728 527.563 737.253 525.856C734.864 524.064 731.877 523.168 728.293 523.168C723.173 523.168 719.12 525.045 716.133 528.8C713.146 532.469 711.653 537.717 711.653 544.544C711.653 551.285 713.146 556.533 716.133 560.288C719.12 563.957 723.173 565.792 728.293 565.792C735.546 565.792 740.282 562.549 742.501 556.064H761.829C759.866 563.744 755.984 569.845 750.181 574.368C744.378 578.891 737.125 581.152 728.421 581.152C721.594 581.152 715.536 579.659 710.245 576.672C704.954 573.6 700.816 569.333 697.829 563.872C694.842 558.325 693.349 551.883 693.349 544.544ZM816.941 580L792.877 549.792V580H774.957V485.28H792.877V539.168L816.685 509.088H839.981L808.749 544.672L840.237 580H816.941Z" fill="white"/>
</svg>
