<?xml version="1.0" encoding="utf-8" standalone="no"?>
<svg width="500" height="500" viewBox="0 0 500 500" fill="none" xmlns="http://www.w3.org/2000/svg">
	<rect width="500" height="500" fill="#1E1E1E"/>
	<rect x="-275.156" y="239.843" width="727.577" height="756.826" transform="rotate(-45 -275.156 239.843)" fill="url(#paint0_linear_0_1)" fill-opacity="0.72"/>
	<path fill-rule="evenodd" clip-rule="evenodd" d="M252.556 113.178C249.21 114.057 249.191 114.182 249.192 134.562C249.193 156.422 248.994 155.775 255.736 155.775C269.725 155.775 288.175 161.827 301.788 170.881C326.778 187.504 340.902 212.222 342.505 242.14C342.968 250.783 341.707 250.32 364.723 250.295C388.347 250.268 386.948 250.857 386.617 241.074C384.356 174.468 330.633 118.764 263.585 113.508C256.487 112.952 253.732 112.869 252.556 113.178ZM270.515 123.989C327.739 131.781 372.613 179.594 376.983 237.431L377.231 240.718H364.568C352.745 240.718 351.904 240.678 351.904 240.096C351.887 215.367 335.865 184.704 314.231 167.998C298.108 155.548 275.264 146.534 259.835 146.534H258.787V134.707V122.879L262.607 123.156C264.709 123.308 268.268 123.682 270.515 123.989ZM230.176 125.422C157.091 135.362 109.26 203.652 123.905 277.148C137.625 345.998 205.158 390.797 274.919 377.325C326.917 367.284 369.109 322.038 375.892 269.044C377.34 257.727 377.698 257.991 360.73 257.85C344.078 257.712 344.784 257.408 343.666 265.189C333.26 337.64 247.527 371.488 190.554 325.639C126.645 274.208 153.548 170.163 233.73 158.657C238.604 157.957 238.729 157.917 239.861 156.686L241.017 155.43V141.723C241.017 123.408 241.345 123.902 230.176 125.422ZM231.775 142.258V149.313L229.198 149.734C151.998 162.338 118.642 258.647 170.495 319.226C215.824 372.183 298.311 367.102 336.898 308.976C344.362 297.733 352.971 275.569 352.971 267.597C352.971 267.475 356.01 267.375 359.724 267.375H366.477V268.201C366.477 276.648 359.667 296.915 352.561 309.615C316.837 373.463 232.25 390.039 175.456 344.321C96.3158 280.614 127.484 153.185 226.471 135.753C229.095 135.291 231.362 134.978 231.509 135.058C231.655 135.138 231.775 138.378 231.775 142.258ZM248.774 178.551C247.739 178.95 247.16 179.694 234.22 197.235C205.044 236.782 201.461 242.412 198.589 253.219C186.805 297.557 234.149 335.415 275.152 314.442C300.157 301.652 311.237 272.271 300.744 246.583C297.365 238.313 293.842 233.142 265.507 194.87C252.311 177.046 252.413 177.146 248.774 178.551ZM263.119 207.665C288.223 241.825 289.374 243.529 292.358 250.987C303.639 279.184 281.885 310.68 251.096 310.727C219.616 310.776 198.038 279.968 209.218 250.938C211.651 244.621 213.796 241.312 228.4 221.349C247.513 195.219 250.725 190.931 250.977 191.211C251.119 191.366 256.581 198.771 263.119 207.665ZM216.248 263.092C211.765 265.826 214.835 279.611 222.036 289.077C229.672 299.114 246.428 305.329 249.335 299.203C251.195 295.283 249.493 293.252 243.37 292.091C233.363 290.192 224.573 279.794 223.611 268.717C223.127 263.151 220.032 260.785 216.248 263.092Z" fill="white"/>
	<path fill-rule="evenodd" clip-rule="evenodd" d="M175.608 177.366L173.665 179.409L175.709 177.467C177.607 175.662 177.915 175.322 177.651 175.322C177.596 175.322 176.676 176.242 175.608 177.366ZM175.975 325.484C177.037 326.559 177.986 327.438 178.083 327.438C178.182 327.438 177.393 326.559 176.331 325.484C175.269 324.409 174.32 323.53 174.223 323.53C174.125 323.53 174.913 324.409 175.975 325.484ZM248.753 379.942C249.391 380.021 250.35 380.019 250.884 379.938C251.419 379.857 250.896 379.792 249.724 379.794C248.551 379.796 248.113 379.862 248.753 379.942Z" fill="white"/>
	<path fill-rule="evenodd" clip-rule="evenodd" d="M348.35 153.109C349.014 153.793 349.636 154.353 349.734 154.353C349.831 154.353 349.369 153.793 348.706 153.109C348.043 152.425 347.42 151.865 347.322 151.865C347.225 151.865 347.687 152.425 348.35 153.109ZM121 249.959C121 251.23 121.065 251.749 121.144 251.114C121.222 250.478 121.222 249.439 121.144 248.804C121.065 248.168 121 248.688 121 249.959ZM145.165 251.914C145.167 253.087 145.233 253.523 145.312 252.885C145.391 252.246 145.39 251.286 145.309 250.752C145.228 250.218 145.163 250.741 145.165 251.914ZM282.049 297.673L280.644 299.184L282.155 297.779C282.985 297.005 283.666 296.326 283.666 296.268C283.666 295.999 283.356 296.268 282.049 297.673Z" fill="white"/>
	<path fill-rule="evenodd" clip-rule="evenodd" d="M241.176 141.559C241.176 148.693 241.224 151.612 241.282 148.044C241.34 144.478 241.34 138.639 241.282 135.072C241.224 131.505 241.176 134.424 241.176 141.559ZM231.419 142.198L231.596 149.556L231.693 142.472C231.747 138.577 231.667 135.266 231.516 135.114C231.365 134.963 231.322 138.15 231.419 142.198ZM165.313 166.97C163.857 168.437 162.745 169.636 162.843 169.636C162.941 169.636 164.212 168.437 165.668 166.97C167.125 165.504 168.236 164.305 168.139 164.305C168.04 164.305 166.769 165.504 165.313 166.97ZM130.602 251.025C130.602 252.491 130.664 253.092 130.742 252.358C130.818 251.625 130.818 250.426 130.742 249.692C130.664 248.959 130.602 249.56 130.602 251.025ZM304.748 266.308C304.748 267.578 304.813 268.099 304.892 267.463C304.971 266.828 304.971 265.789 304.892 265.153C304.813 264.518 304.748 265.037 304.748 266.308ZM196.686 268.441C196.686 269.32 196.755 269.68 196.84 269.241C196.925 268.8 196.925 268.081 196.84 267.641C196.755 267.201 196.686 267.561 196.686 268.441ZM182.728 318.731C183.79 319.807 184.739 320.687 184.836 320.687C184.934 320.687 184.146 319.807 183.084 318.731C182.022 317.656 181.073 316.777 180.976 316.777C180.877 316.777 181.666 317.656 182.728 318.731ZM164.602 334.725C165.265 335.409 165.888 335.969 165.986 335.969C166.083 335.969 165.621 335.409 164.958 334.725C164.294 334.041 163.672 333.481 163.574 333.481C163.476 333.481 163.939 334.041 164.602 334.725ZM341.042 340.678L339.998 341.834L341.153 340.789C341.788 340.215 342.309 339.695 342.309 339.634C342.309 339.36 342.015 339.602 341.042 340.678ZM246.617 356.124C247.059 356.208 247.699 356.206 248.039 356.116C248.379 356.027 248.018 355.958 247.235 355.962C246.453 355.965 246.175 356.038 246.617 356.124ZM248.047 370.351C249.08 370.423 250.679 370.422 251.601 370.349C252.523 370.277 251.678 370.217 249.724 370.218C247.768 370.219 247.014 370.279 248.047 370.351Z" fill="white"/>
	<defs>
		<linearGradient id="paint0_linear_0_1" x1="88.6321" y1="239.843" x2="88.6321" y2="996.669" gradientUnits="userSpaceOnUse">
			<stop offset="0.322115" stop-color="#101D24"/>
			<stop offset="0.639423" stop-color="#104866"/>
		</linearGradient>
	</defs>
</svg>
